<svg width="501" height="139" viewBox="0 0 501 139" fill="none" xmlns="http://www.w3.org/2000/svg">
<path d="M277.031 17.593H305.86L291.357 121.141H262.527L277.031 17.593ZM240.684 17.593L221.228 77.2438L212.738 17.593H192.575L167.106 77.0668L163.922 17.593H135.977L145.705 121.141H168.875L197.528 55.6491L207.609 121.141H230.425L268.099 17.593H240.684V17.593ZM482.73 77.7748H414.281C414.635 91.2272 422.683 100.077 434.533 100.077C443.465 100.077 450.54 95.2983 456.023 86.1825L479.131 96.6966C471.189 112.353 454.457 122.557 433.826 122.557C405.703 122.557 387.043 103.618 387.043 73.1726C387.043 39.7187 408.975 16 439.928 16C467.165 16 484.322 34.4085 484.322 63.0834C484.322 67.8625 483.791 72.6416 482.73 77.7748V77.7748ZM457.084 57.9502C457.084 45.9139 450.363 38.3026 439.574 38.3026C428.785 38.3026 419.234 46.2679 416.758 57.9502H457.084ZM45.8706 48.799L16.4395 83.2177H68.9875L74.8949 66.9863H52.3794L66.1399 51.0647L66.1841 50.6399L57.2345 35.2316H97.4812L66.2813 121.141H87.6295L125.303 17.593H27.9714L45.8617 48.799H45.8706ZM352.731 38.3026C362.901 38.3026 371.815 43.7721 379.597 53.1534L383.683 23.9652C376.431 19.0533 366.615 16 353.615 16C327.792 16 313.289 31.1339 313.289 50.339C313.289 63.6586 320.717 71.8009 332.921 77.0668L338.758 79.7218C349.636 84.3682 352.554 86.6693 352.554 91.5812C352.554 96.4931 347.646 99.9004 340.173 99.9004C327.836 99.9447 317.843 93.6167 310.326 82.8194L306.161 112.565C314.721 119.097 325.696 122.557 340.173 122.557C364.714 122.557 379.792 108.397 379.792 88.7491C379.792 75.3852 373.867 66.8005 358.921 60.0743L352.554 57.0652C343.71 53.1268 340.704 50.9585 340.704 46.6219C340.704 41.9312 344.816 38.3026 352.731 38.3026V38.3026Z" fill="#163300"/>
</svg>
